<svg xmlns="http://www.w3.org/2000/svg" width="42.025" height="38.6" viewBox="0 0 42.025 38.6">
    <defs>
        <style>
            .cls-1{fill:#00519d}
        </style>
    </defs>
    <g id="ICON____iconcart">
        <path id="Caminho_196" d="M36.034 28.593H14.868l-7-27.52A1.285 1.285 0 0 0 6.647 0H.875A.835.835 0 0 0 0 .894a.835.835 0 0 0 .875.894H6.3l7 27.52a1.335 1.335 0 0 0 1.4 1.072h21.159a1.167 1.167 0 0 0 .875-.715c.175-.358-.175-.894-.7-1.072z" class="cls-1"/>
        <path id="Caminho_197" d="M15.567 15.743c.525-.179.875-.536.7-1.072l-3.148-9.114a1.434 1.434 0 0 0-1.4-.536c-.525.179-.875.536-.7 1.072l3.149 9.114a1.434 1.434 0 0 0 1.399.536z" class="cls-1" transform="translate(8.222 3.914)"/>
        <path id="Caminho_198" d="M20.168 5.557l-3.149 9.114c-.175.357.175.894.7 1.072a1.059 1.059 0 0 0 1.224-.536l3.324-9.114c.175-.357-.175-.894-.7-1.072a1.434 1.434 0 0 0-1.399.536z" class="cls-1" transform="translate(12.717 3.914)"/>
        <path id="Caminho_199" d="M15 5.894v9.114a.875.875 0 1 0 1.749 0V5.894a.875.875 0 1 0-1.749 0z" class="cls-1" transform="translate(11.238 3.935)"/>
        <path id="Caminho_200" d="M35.687 3H8.224A1.371 1.371 0 0 0 7 4.43v.357l4.373 16.977a1.51 1.51 0 0 0 1.227 1.072h18.364a1.285 1.285 0 0 0 1.224-1.072l.7-2.323a.872.872 0 0 0-.525-1.072h-.175a1.167 1.167 0 0 0-.875.715l-.7 1.787H12.947L8.749 4.787h26.064l-2.624 10.365a.872.872 0 0 0 .525 1.072h.175a1.167 1.167 0 0 0 .875-.715l2.973-10.722A1.437 1.437 0 0 0 35.687 3z" class="cls-1" transform="translate(5.245 2.361)"/>
        <path id="Caminho_201" d="M12.824 17.8a3.4 3.4 0 1 0 3.324 3.4 3.357 3.357 0 0 0-3.324-3.4zm0 5.182a1.787 1.787 0 1 1 1.749-1.782 1.9 1.9 0 0 1-1.749 1.782z" class="cls-1" transform="translate(7.118 14.009)"/>
        <path id="Caminho_202" d="M19.824 17.8a3.358 3.358 0 0 0-3.324 3.4 3.478 3.478 0 0 0 3.324 3.4 3.4 3.4 0 0 0 0-6.791zm0 5.182a1.787 1.787 0 1 1 1.749-1.782c-.173.889-.873 1.782-1.749 1.782z" class="cls-1" transform="translate(12.362 14.009)"/>
    </g>
</svg>
