<svg xmlns="http://www.w3.org/2000/svg" width="48" height="48" viewBox="0 0 48 48">
    <defs>
        <style>
            .cls-2,.cls-3{fill:#0661c3}.cls-2{opacity:.3}
        </style>
    </defs>
    <g id="icon" transform="translate(-348 -15)">
        <path id="Caminho_1" fill="#f2f6f9" d="M48 24A24 24 0 1 1 24 0a24 24 0 0 1 24 24" transform="translate(348 15)"/>
        <path id="Caminho_4" d="M45.357 132.651a.325.325 0 0 0-.571.31 14.537 14.537 0 0 0 12.854 7.831.324.324 0 1 0 0-.648 13.906 13.906 0 0 1-12.3-7.493" class="cls-2" transform="translate(313.992 -85.686)"/>
        <path id="Caminho_5" d="M69.695 80.224a1.481 1.481 0 1 0-1.44 1.826 1.68 1.68 0 0 0 1.44-1.826" class="cls-3" transform="translate(297.227 -44.584)"/>
        <path id="Caminho_6" d="M117.935 80.224a1.481 1.481 0 1 0-1.44 1.826 1.68 1.68 0 0 0 1.44-1.826" class="cls-3" transform="translate(260.564 -44.584)"/>
        <path id="Caminho_7" d="M77.267 107.593a.163.163 0 0 0-.161-.163 71.873 71.873 0 0 1-9.082.662 71.847 71.847 0 0 1-9.082-.662.166.166 0 0 0-.163.163c0 4.382 4.147 7.949 9.245 7.949s9.242-3.564 9.242-7.949" class="cls-3" transform="translate(303.327 -66.646)"/>
        <path id="Caminho_17" d="M52.25 97.082c0 .48-1.075.845-2.4.845s-2.4-.377-2.4-.845 1.078-.842 2.4-.842 2.4.377 2.4.842" class="cls-2" transform="translate(311.938 -58.143)"/>
        <path id="Caminho_18" d="M131.99 97.082c0 .48-1.078.845-2.4.845s-2.4-.377-2.4-.845 1.078-.842 2.4-.842 2.4.377 2.4.842" class="cls-2" transform="translate(251.336 -58.143)"/>
        <path id="Caminho_3" d="M58.6 33.869a.648.648 0 0 0-1.14.617 16.882 16.882 0 1 1-2.906-3.893.648.648 0 0 0 .917-.917 18.127 18.127 0 1 0 3.12 4.193" class="cls-3" transform="translate(329.355 -3.482)"/>
    </g>
</svg>
